<svg width="158" height="158" viewBox="0 0 158 158" fill="none" xmlns="http://www.w3.org/2000/svg">
<path d="M71 4.6188C75.9504 1.76068 82.0496 1.76068 87 4.6188L139.416 34.8812C144.366 37.7393 147.416 43.0214 147.416 48.7376V109.262C147.416 114.979 144.366 120.261 139.416 123.119L87 153.381C82.0496 156.239 75.9504 156.239 71 153.381L18.584 123.119C13.6336 120.261 10.584 114.979 10.584 109.262V48.7376C10.584 43.0214 13.6336 37.7393 18.584 34.8812L71 4.6188Z" fill="#0086FC"/>
<path d="M59 66.6174C59 54.1262 69.1262 44 81.6174 44H84.5C98.5833 44 110 55.4167 110 69.5V69.5C110 83.5833 98.5833 95 84.5 95H68C63.0294 95 59 90.9706 59 86V66.6174Z" fill="white"/>
<rect x="59" y="99" width="22" height="22" rx="11" fill="white"/>
</svg>
